<svg version="1.1" xmlns="http://www.w3.org/2000/svg" height="50" width="50">
 <g>
  <title>Слой 1</title>
  <g transform="matrix(0.020603 0 0 0.021102 -5.65076 -4.19858)" id="svg_13">
   <svg xmlns="http://www.w3.org/2000/svg" xmlns:xlink="http://www.w3.org/1999/xlink" viewBox="0 0 152 248" data-background-color="#ffffff" preserveAspectRatio="xMidYMid meet" height="3263" width="2000" id="svg_69" x="519.15769" y="259.99755">
    <g id="svg_1" transform="matrix(1,0,0,1,0.10667873512471715,0.4000000000000057)">
     <svg viewBox="0 0 151.78664252975054 247.2" height="247.2" width="151.78664" id="svg_70">
      <svg viewBox="0 0 454.14961955942647 739.6288901580115" height="247.2" width="151.78664" id="svg_71">
       <g transform="matrix(1,0,0,1,29.314809779713244,554.7251807889867)" id="svg_34">
        <svg viewBox="0 0 395.52 184.90370936902485" height="184.90371" width="395.52" id="svg_72">
         <svg viewBox="0 0 395.52 184.90370936902485" height="184.90371" width="395.52" id="svg_35">
          <svg viewBox="0 0 395.52 184.90370936902485" height="184.90371" width="395.52" id="svg_73">
           <svg width="395.52" viewBox="3.8 -38 104.59 48.900000000000006" height="184.90371" data-palette-color="#111111" id="svg_74">
            <path d="m9.85,10.9l-6.05,0l0,-35.8l5.95,0l0,0.8l-0.5,3.5q0.3,-1.43 1.36,-2.55q1.07,-1.13 2.6,-1.76q1.54,-0.64 3.24,-0.64l0,0q4.95,0 7.23,3.46q2.27,3.46 2.27,9.29l0,0q0,6.52 -2.76,10.01q-2.76,3.49 -7.24,3.49l0,0q-2.77,0 -4.44,-1.73q-1.66,-1.72 -2.26,-3.92l0,0l0.6,4.7l0,11.15zm4.65,-15.15l0,0q1.2,0 2.32,-0.81q1.13,-0.82 1.86,-2.64q0.72,-1.83 0.72,-4.85l0,0q0,-4.2 -1.44,-6.05q-1.43,-1.85 -3.36,-1.85l0,0q-2.32,0 -3.54,2.39q-1.21,2.38 -1.21,5.91l0,0q0,3.52 1.24,5.71q1.24,2.19 3.41,2.19zm24.45,4.85l0,0q-3.78,0 -5.57,-2.41q-1.78,-2.42 -1.78,-6.64l0,0l0,-16.45l6.25,0l0,15.9q0,2.05 0.75,3.35q0.75,1.3 2.55,1.3l0,0q1.77,0 2.96,-1.3q1.19,-1.3 1.19,-3.35l0,0l0,-15.9l6.25,0l0,24.9l-5.65,0l-0.13,-3.23q-0.92,1.48 -2.51,2.65q-1.59,1.18 -4.31,1.18zm26.39,-0.6l-6.39,0l0,-24.9l5.8,0l0.12,3.27q0.97,-1.5 2.72,-2.68q1.75,-1.19 4.61,-1.19l0,0q3.8,0 5.64,2.4q1.86,2.4 1.86,6.65l0,0l0,16.45l-6.4,0l0,-15.9q0,-2.08 -0.88,-3.36q-0.87,-1.29 -2.67,-1.29l0,0q-1.75,0 -3.08,1.29q-1.33,1.28 -1.33,3.36l0,0l0,15.9zm27.65,0l-5.9,0l0,-38l5.9,0l0,18.65l-0.2,5.85l7.65,-11.4l7.1,0l-8.7,11.45l9.55,13.45l-7.55,0l-8.05,-12.05l0.2,6.1l0,5.95z" fill="#111111" class="wordmark-text-0" data-fill-palette-color="primary" id="svg_39"></path>
           </svg>
          </svg>
         </svg>
        </svg>
       </g>
       <svg viewBox="0 0 454.14961955942647 511.0738526959847" height="511.07385" width="454.14962" id="svg_75">
        <svg xmlns="http://www.w3.org/2000/svg" xmlns:xlink="http://www.w3.org/1999/xlink" xml:space="preserve" version="1.1" viewBox="58 12.75 730 821.5" x="0" y="0" fill-rule="evenodd" clip-rule="evenodd" height="511.07385" width="454.14962" class="icon-icon-0" data-fill-palette-color="accent" id="svg_43"></svg>
       </svg>
       <g id="svg_76"></g>
      </svg>
      <defs>
       <linearGradient x1="0" x2="1" y1="0.578" y2="0.595" id="svg_14">
        <stop stop-color="#6ee2f5" offset="0"></stop>
        <stop stop-color="#6454f0" offset="1"></stop>
       </linearGradient>
      </defs>
      <mask id="svg_15">
       <g id="svg_16">
        <svg viewBox="0 0 151.78664252975054 247.2" height="247.2" width="151.78664" id="svg_77">
         <svg viewBox="0 0 454.14961955942647 739.6288901580115" height="247.2" width="151.78664" id="svg_78">
          <g transform="matrix(1,0,0,1,29.314809779713244,554.7251807889867)" id="svg_58">
           <svg viewBox="0 0 395.52 184.90370936902485" height="184.90371" width="395.52" id="svg_79">
            <svg viewBox="0 0 395.52 184.90370936902485" height="184.90371" width="395.52" id="svg_59">
             <svg viewBox="0 0 395.52 184.90370936902485" height="184.90371" width="395.52" id="svg_80">
              <svg width="395.52" viewBox="3.8 -38 104.59 48.900000000000006" height="184.90371" data-palette-color="#111111" id="svg_81">
               <path d="m9.85,10.9l-6.05,0l0,-35.8l5.95,0l0,0.8l-0.5,3.5q0.3,-1.43 1.36,-2.55q1.07,-1.13 2.6,-1.76q1.54,-0.64 3.24,-0.64l0,0q4.95,0 7.23,3.46q2.27,3.46 2.27,9.29l0,0q0,6.52 -2.76,10.01q-2.76,3.49 -7.24,3.49l0,0q-2.77,0 -4.44,-1.73q-1.66,-1.72 -2.26,-3.92l0,0l0.6,4.7l0,11.15zm4.65,-15.15l0,0q1.2,0 2.32,-0.81q1.13,-0.82 1.86,-2.64q0.72,-1.83 0.72,-4.85l0,0q0,-4.2 -1.44,-6.05q-1.43,-1.85 -3.36,-1.85l0,0q-2.32,0 -3.54,2.39q-1.21,2.38 -1.21,5.91l0,0q0,3.52 1.24,5.71q1.24,2.19 3.41,2.19zm24.45,4.85l0,0q-3.78,0 -5.57,-2.41q-1.78,-2.42 -1.78,-6.64l0,0l0,-16.45l6.25,0l0,15.9q0,2.05 0.75,3.35q0.75,1.3 2.55,1.3l0,0q1.77,0 2.96,-1.3q1.19,-1.3 1.19,-3.35l0,0l0,-15.9l6.25,0l0,24.9l-5.65,0l-0.13,-3.23q-0.92,1.48 -2.51,2.65q-1.59,1.18 -4.31,1.18zm26.39,-0.6l-6.39,0l0,-24.9l5.8,0l0.12,3.27q0.97,-1.5 2.72,-2.68q1.75,-1.19 4.61,-1.19l0,0q3.8,0 5.64,2.4q1.86,2.4 1.86,6.65l0,0l0,16.45l-6.4,0l0,-15.9q0,-2.08 -0.88,-3.36q-0.87,-1.29 -2.67,-1.29l0,0q-1.75,0 -3.08,1.29q-1.33,1.28 -1.33,3.36l0,0l0,15.9zm27.65,0l-5.9,0l0,-38l5.9,0l0,18.65l-0.2,5.85l7.65,-11.4l7.1,0l-8.7,11.45l9.55,13.45l-7.55,0l-8.05,-12.05l0.2,6.1l0,5.95z" fill="black" class="wordmark-text-0" id="svg_63"></path>
              </svg>
             </svg>
            </svg>
           </svg>
          </g>
          <svg viewBox="0 0 454.14961955942647 511.0738526959847" height="511.07385" width="454.14962" id="svg_82">
           <svg xmlns="http://www.w3.org/2000/svg" xmlns:xlink="http://www.w3.org/1999/xlink" xml:space="preserve" version="1.1" viewBox="58 12.75 730 821.5" x="0" y="0" fill-rule="evenodd" clip-rule="evenodd" height="511.07385" width="454.14962" class="icon-icon-0" data-fill-palette-color="accent" id="svg_67">
            <g fill="white" id="svg_83">
             <path d="m200,61l534,306c5,3 7,6 7,12l0,86c0,6 -2,9 -7,12l-534,308c-4,2 -8,2 -12,0l-75,-43c-4,-3 -7,-6 -7,-11l0,-615c0,-4 2,-8 6,-10l76,-45c3,-2 9,-2 12,0m6,117l53,30l0,339l-53,31l0,-400zm-24,420c0,9 10,15 18,10l299,-172l53,30l-423,244l0,-587l53,-31l0,506zm535,-213l-511,-293l0,59l511,295l0,-61zm-11,81l-423,-244l0,61l299,173c8,4 7,17 0,20l-441,255l53,30l512,-295zm-423,-155l0,222l193,-111l-193,-111z" fill="white" id="svg_84"></path>
             <path d="m661,466l-356,-205l0,10l288,166c23,12 22,47 -1,59l-406,235l8,5l467,-270z" fill="white" id="svg_85"></path>
             <polygon points="695,398 228,130 228,138 695,407" fill="white" id="svg_86"></polygon>
             <path d="m160,131l-8,5l0,536l355,-206l-8,-5l-288,167c-22,13 -51,-4 -51,-30l0,-467z" fill="white" id="svg_87"></path>
             <path d="m228,217l0,322l9,-5l0,-313l-9,-4z" fill="white" id="svg_88"></path>
             <path d="m305,349l0,146l126,-73l-126,-73zm25,44l51,29l-51,29l0,-58z" fill="white" id="svg_89"></path>
             <path d="m224,21l534,305c19,11 30,30 30,53l0,86c0,23 -11,42 -30,53l-534,308c-19,11 -41,11 -59,0l-76,-43c-19,-11 -31,-30 -31,-52l0,-615c0,-21 12,-41 30,-51l76,-44c18,-11 42,-11 60,0m-141,710c0,13 8,24 19,30l75,44c11,6 24,6 34,0l535,-309c11,-7 17,-17 17,-31l0,-86c0,-14 -6,-25 -18,-31l-533,-306c-11,-6 -25,-6 -35,0l-76,44c-11,6 -18,18 -18,30l0,615z" fill="white" id="svg_90"></path>
            </g>
           </svg>
          </svg>
          <g id="svg_91"></g>
         </svg>
         <defs>
          <mask></mask>
         </defs>
        </svg>
        <rect width="151.78664" height="247.2" fill="black" visibility="hidden" id="svg_92"></rect>
       </g>
      </mask>
      <rect width="151.78664" height="247.2" fill="url(#svg_14)" mask="url(#svg_15)" data-fill-palette-color="accent" id="svg_93"></rect>
     </svg>
     <rect width="151.78664" height="247.2" fill="none" visibility="hidden" id="svg_94"></rect>
    </g>
   </svg>
  </g>
 </g>
</svg>